<svg width="34" height="35" viewBox="0 0 34 35" fill="none" xmlns="http://www.w3.org/2000/svg">
<g clip-path="url(#clip0_19_1953)">
<path d="M6.69279 3.73438C3.94364 5.91073 1.86345 8.89988 0.815552 12.3472C14.9793 21.7368 15.7621 33.8299 15.8026 34.853C16.2205 34.8922 16.6447 34.9142 17.0703 34.922C18.7685 14.4749 9.75695 5.99546 6.69279 3.73438Z" fill="#79197E"/>
<path d="M0.107609 16.2668C0.076422 16.6921 0.0561523 17.1205 0.0561523 17.5535C0.0561523 26.3876 7.33994 33.6871 15.8011 34.8514C12.3502 23.4754 3.60994 18.1294 0.107609 16.2668Z" fill="#933093"/>
<path d="M27.3559 3.73438C30.1052 5.91073 32.1853 8.89988 33.2332 12.3472C19.0695 21.7368 18.2867 33.8299 18.2462 34.853C17.8283 34.8922 17.4041 34.9142 16.9784 34.922C15.2818 14.4749 24.2918 5.99546 27.3559 3.73438Z" fill="#933093"/>
<path d="M33.9411 16.1777C33.9724 16.6029 33.9926 17.0313 33.9926 17.4643C33.9926 26.2985 26.7088 33.6859 18.2477 34.8517C21.6986 23.4757 30.4388 18.0403 33.9411 16.1777Z" fill="#79197E"/>
<path d="M11.4114 1.30393C14.2198 2.10888 16.4014 4.42647 17.0236 7.32148V0C15.0104 0 13.1064 0.469164 11.4114 1.30393Z" fill="#FF9C00"/>
<path d="M17.0251 0V7.32148C17.6473 4.42647 19.8305 2.10888 22.6373 1.30393C20.9423 0.469164 19.0383 0 17.0251 0Z" fill="#F58600"/>
</g>
<defs>
<clipPath id="clip0_19_1953">
<rect width="34" height="35" fill="white"/>
</clipPath>
</defs>
</svg>
