<svg width="30" height="30" viewBox="0 0 30 30" fill="none" xmlns="http://www.w3.org/2000/svg">
<circle cx="15" cy="15" r="15" fill="#1F76D4"/>
<path d="M15.0033 11.2565C12.933 11.2565 11.263 12.9264 11.263 14.9967C11.263 17.0671 12.933 18.737 15.0033 18.737C17.0736 18.737 18.7435 17.0671 18.7435 14.9967C18.7435 12.9264 17.0736 11.2565 15.0033 11.2565ZM15.0033 17.4284C13.6654 17.4284 12.5716 16.3379 12.5716 14.9967C12.5716 13.6556 13.6621 12.5651 15.0033 12.5651C16.3444 12.5651 17.4349 13.6556 17.4349 14.9967C17.4349 16.3379 16.3412 17.4284 15.0033 17.4284ZM19.7689 11.1035C19.7689 11.5885 19.3783 11.9759 18.8965 11.9759C18.4115 11.9759 18.0241 11.5853 18.0241 11.1035C18.0241 10.6217 18.4147 10.2311 18.8965 10.2311C19.3783 10.2311 19.7689 10.6217 19.7689 11.1035ZM22.2461 11.9889C22.1908 10.8203 21.9239 9.78516 21.0677 8.93229C20.2149 8.07943 19.1797 7.8125 18.0111 7.75391C16.8067 7.68555 13.1966 7.68555 11.9922 7.75391C10.8268 7.80924 9.79169 8.07617 8.93557 8.92904C8.07945 9.7819 7.81578 10.8171 7.75719 11.9857C7.68883 13.1901 7.68883 16.8001 7.75719 18.0046C7.81253 19.1732 8.07945 20.2083 8.93557 21.0612C9.79169 21.9141 10.8236 22.181 11.9922 22.2396C13.1966 22.3079 16.8067 22.3079 18.0111 22.2396C19.1797 22.1842 20.2149 21.9173 21.0677 21.0612C21.9206 20.2083 22.1875 19.1732 22.2461 18.0046C22.3145 16.8001 22.3145 13.1934 22.2461 11.9889ZM20.6901 19.2969C20.4362 19.9349 19.9447 20.4264 19.3034 20.6836C18.3431 21.0645 16.0645 20.9766 15.0033 20.9766C13.9421 20.9766 11.6602 21.0612 10.7032 20.6836C10.0651 20.4297 9.57359 19.9382 9.31643 19.2969C8.93557 18.3366 9.02346 16.0579 9.02346 14.9967C9.02346 13.9355 8.93883 11.6536 9.31643 10.6966C9.57034 10.0586 10.0619 9.56706 10.7032 9.3099C11.6634 8.92904 13.9421 9.01693 15.0033 9.01693C16.0645 9.01693 18.3464 8.93229 19.3034 9.3099C19.9414 9.5638 20.433 10.0553 20.6901 10.6966C21.071 11.6569 20.9831 13.9355 20.9831 14.9967C20.9831 16.0579 21.071 18.3398 20.6901 19.2969Z" fill="white"/>
</svg>
