<svg width="20" height="20" viewBox="0 0 20 20" fill="none" xmlns="http://www.w3.org/2000/svg">
<path d="M18.2781 0.753418H1.97263C1.22549 0.753418 0.618439 1.36896 0.618439 2.12459V18.4004C0.618439 19.156 1.22549 19.7715 1.97263 19.7715H18.2781C19.0253 19.7715 19.6366 19.156 19.6366 18.4004V2.12459C19.6366 1.36896 19.0253 0.753418 18.2781 0.753418ZM6.36633 17.0547H3.54757V7.97861H6.37057V17.0547H6.36633ZM4.95695 6.73903C4.05274 6.73903 3.32258 6.00463 3.32258 5.10466C3.32258 4.2047 4.05274 3.47029 4.95695 3.47029C5.85691 3.47029 6.59132 4.2047 6.59132 5.10466C6.59132 6.00887 5.86116 6.73903 4.95695 6.73903ZM16.9324 17.0547H14.1137V12.6397C14.1137 11.587 14.0924 10.2328 12.6491 10.2328C11.1803 10.2328 10.9553 11.3789 10.9553 12.5633V17.0547H8.13654V7.97861H10.8407V9.21818H10.8789C11.2567 8.505 12.1779 7.75362 13.5491 7.75362C16.4018 7.75362 16.9324 9.6342 16.9324 12.0794V17.0547Z" fill="white"/>
</svg>
