<svg width="22" height="22" viewBox="0 0 22 22" fill="none" xmlns="http://www.w3.org/2000/svg">
<path d="M11.2671 5.95607C8.33245 5.95607 5.96533 8.32319 5.96533 11.2579C5.96533 14.1925 8.33245 16.5596 11.2671 16.5596C14.2018 16.5596 16.5689 14.1925 16.5689 11.2579C16.5689 8.32319 14.2018 5.95607 11.2671 5.95607ZM11.2671 14.7047C9.37066 14.7047 7.82026 13.1589 7.82026 11.2579C7.82026 9.35678 9.36604 7.811 11.2671 7.811C13.1682 7.811 14.714 9.35678 14.714 11.2579C14.714 13.1589 13.1636 14.7047 11.2671 14.7047ZM18.0224 5.7392C18.0224 6.42673 17.4687 6.97582 16.7858 6.97582C16.0982 6.97582 15.5491 6.42211 15.5491 5.7392C15.5491 5.05629 16.1029 4.50258 16.7858 4.50258C17.4687 4.50258 18.0224 5.05629 18.0224 5.7392ZM21.5338 6.99428C21.4554 5.33776 21.077 3.87043 19.8635 2.66149C18.6545 1.45256 17.1872 1.07419 15.5307 0.991132C13.8234 0.894232 8.7062 0.894232 6.99893 0.991132C5.34702 1.06957 3.87969 1.44794 2.66614 2.65688C1.45259 3.86581 1.07883 5.33315 0.995778 6.98967C0.898878 8.69694 0.898878 13.8142 0.995778 15.5214C1.07422 17.1779 1.45259 18.6453 2.66614 19.8542C3.87969 21.0632 5.34241 21.4415 6.99893 21.5246C8.7062 21.6215 13.8234 21.6215 15.5307 21.5246C17.1872 21.4461 18.6545 21.0678 19.8635 19.8542C21.0724 18.6453 21.4508 17.1779 21.5338 15.5214C21.6307 13.8142 21.6307 8.70156 21.5338 6.99428ZM19.3282 17.3533C18.9683 18.2577 18.2716 18.9544 17.3626 19.319C16.0013 19.8588 12.7714 19.7342 11.2671 19.7342C9.76287 19.7342 6.52827 19.8542 5.17168 19.319C4.26729 18.9591 3.57053 18.2623 3.20601 17.3533C2.66614 15.9921 2.79072 12.7621 2.79072 11.2579C2.79072 9.75361 2.67075 6.51901 3.20601 5.16242C3.56592 4.25803 4.26267 3.56127 5.17168 3.19675C6.53289 2.65688 9.76287 2.78146 11.2671 2.78146C12.7714 2.78146 16.006 2.66149 17.3626 3.19675C18.2669 3.55666 18.9637 4.25341 19.3282 5.16242C19.8681 6.52363 19.7435 9.75361 19.7435 11.2579C19.7435 12.7621 19.8681 15.9967 19.3282 17.3533Z" fill="white"/>
</svg>
