<svg width="30" height="30" viewBox="0 0 30 30" fill="none" xmlns="http://www.w3.org/2000/svg">
<circle cx="15" cy="15" r="15" fill="#1F76D4"/>
<path d="M20.75 8.2915H9.24701C8.71993 8.2915 8.29167 8.72575 8.29167 9.25882V20.7409C8.29167 21.2739 8.71993 21.7082 9.24701 21.7082H20.75C21.2771 21.7082 21.7083 21.2739 21.7083 20.7409V9.25882C21.7083 8.72575 21.2771 8.2915 20.75 8.2915ZM12.3466 19.7915H10.3581V13.3886H12.3496V19.7915H12.3466ZM11.3523 12.5142C10.7145 12.5142 10.1994 11.9961 10.1994 11.3612C10.1994 10.7263 10.7145 10.2082 11.3523 10.2082C11.9872 10.2082 12.5053 10.7263 12.5053 11.3612C12.5053 11.9991 11.9902 12.5142 11.3523 12.5142ZM19.8007 19.7915H17.8121V16.6769C17.8121 15.9342 17.7971 14.9789 16.7789 14.9789C15.7427 14.9789 15.584 15.7875 15.584 16.623V19.7915H13.5954V13.3886H15.5031V14.2631H15.5301C15.7966 13.76 16.4465 13.2299 17.4138 13.2299C19.4263 13.2299 19.8007 14.5566 19.8007 16.2816V19.7915Z" fill="white"/>
</svg>
