<svg width="28" height="31" viewBox="0 0 28 31" fill="none" xmlns="http://www.w3.org/2000/svg">
<g clip-path="url(#clip0_17_270)">
<path d="M6 0C2.6875 0 0 2.60352 0 5.8125V25.1875C0 28.3965 2.6875 31 6 31H24H26C27.1063 31 28 30.1342 28 29.0625C28 27.9908 27.1063 27.125 26 27.125V23.25C27.1063 23.25 28 22.3842 28 21.3125V1.9375C28 0.86582 27.1063 0 26 0H24H6ZM6 23.25H22V27.125H6C4.89375 27.125 4 26.2592 4 25.1875C4 24.1158 4.89375 23.25 6 23.25ZM8 8.71875C8 8.18594 8.45 7.75 9 7.75H21C21.55 7.75 22 8.18594 22 8.71875C22 9.25156 21.55 9.6875 21 9.6875H9C8.45 9.6875 8 9.25156 8 8.71875ZM9 11.625H21C21.55 11.625 22 12.0609 22 12.5938C22 13.1266 21.55 13.5625 21 13.5625H9C8.45 13.5625 8 13.1266 8 12.5938C8 12.0609 8.45 11.625 9 11.625Z" fill="white"/>
</g>
<defs>
<clipPath id="clip0_17_270">
<rect width="28" height="31" fill="white"/>
</clipPath>
</defs>
</svg>
