<svg width="30" height="30" viewBox="0 0 30 30" fill="none" xmlns="http://www.w3.org/2000/svg">
<circle cx="15" cy="15" r="15" fill="#1F76D4"/>
<path d="M19.9608 10.0347C18.6443 8.72333 16.8941 8.00058 15.0296 8C11.1874 8 8.06037 11.1115 8.05861 14.937C8.05803 16.1597 8.37923 17.3532 8.98941 18.4055L8 22L11.695 21.0352C12.7132 21.5882 13.8597 21.8792 15.0261 21.8798H15.029C18.8706 21.8798 21.9982 18.7677 22 14.9422C22.0012 13.089 21.2767 11.3454 19.9608 10.0347ZM15.0296 20.7079H15.0273C13.9874 20.7079 12.9681 20.4297 12.0784 19.9041L11.8668 19.7793L9.67402 20.3515L10.2596 18.2235L10.1218 18.0053C9.54155 17.0872 9.23559 16.0261 9.23617 14.937C9.23735 11.7578 11.8369 9.17133 15.0325 9.17133C16.5799 9.17133 18.0347 9.77217 19.1285 10.8618C20.2222 11.9521 20.8242 13.4005 20.8236 14.9411C20.8219 18.1214 18.2229 20.7079 15.0296 20.7079ZM18.2077 16.3895C18.0336 16.3026 17.1772 15.8832 17.0172 15.8254C16.8578 15.7677 16.7417 15.7385 16.6251 15.9117C16.5084 16.085 16.1755 16.4758 16.0735 16.5919C15.9721 16.7074 15.8701 16.722 15.696 16.6351C15.522 16.5482 14.9604 16.3656 14.2952 15.7747C13.7776 15.315 13.4277 14.7474 13.3263 14.5736C13.2249 14.3997 13.3157 14.3064 13.4025 14.2201C13.481 14.1425 13.5766 14.0177 13.6639 13.9162C13.7518 13.8158 13.7805 13.7435 13.8391 13.6274C13.8972 13.5119 13.8685 13.4104 13.8245 13.3235C13.7805 13.2372 13.4324 12.3837 13.2876 12.0367C13.1463 11.6983 13.0027 11.7444 12.8955 11.7392C12.7941 11.7339 12.678 11.7333 12.5614 11.7333C12.4453 11.7333 12.2566 11.7765 12.0971 11.9503C11.9377 12.1242 11.4875 12.5436 11.4875 13.3964C11.4875 14.2498 12.1118 15.0741 12.1985 15.1896C12.2853 15.3051 13.4265 17.0562 15.1738 17.807C15.5894 17.9855 15.9141 18.0922 16.1667 18.1722C16.584 18.304 16.9639 18.2853 17.264 18.241C17.5987 18.1914 18.2944 17.8216 18.4398 17.4167C18.5851 17.0119 18.5851 16.6642 18.5412 16.5925C18.4978 16.5196 18.3817 16.4764 18.2077 16.3895Z" fill="white"/>
</svg>
