<svg width="20" height="21" viewBox="0 0 20 21" fill="none" xmlns="http://www.w3.org/2000/svg">
<path d="M17.0244 3.22423C15.1583 1.36541 12.6774 0.340915 10.0345 0.340088C4.5882 0.340088 0.155579 4.75064 0.153086 10.1733C0.152255 11.9064 0.607565 13.5982 1.47249 15.0899L0.0700006 20.1851L5.30772 18.8174C6.75091 19.6013 8.37607 20.0139 10.0295 20.0148H10.0336C15.4791 20.0148 19.9125 15.6034 19.915 10.1807C19.9167 7.55375 18.8897 5.08222 17.0244 3.22423ZM10.0345 18.3536H10.0311C8.55719 18.3536 7.11234 17.9591 5.8511 17.2141L5.55116 17.0372L2.44293 17.8483L3.27295 14.8319L3.0777 14.5226C2.25515 13.2211 1.82145 11.7171 1.82228 10.1733C1.82394 5.66682 5.50878 2.00045 10.0386 2.00045C12.2321 2.00045 14.2943 2.85213 15.8446 4.39674C17.395 5.94217 18.2483 7.9953 18.2475 10.1791C18.245 14.6872 14.561 18.3536 10.0345 18.3536ZM14.5394 12.2322C14.2926 12.109 13.0787 11.5145 12.8519 11.4326C12.6259 11.3508 12.4614 11.3094 12.296 11.555C12.1307 11.8006 11.6588 12.3546 11.5142 12.5191C11.3705 12.6829 11.2259 12.7035 10.9791 12.5803C10.7324 12.4571 9.93642 12.1983 8.99339 11.3607C8.25975 10.7091 7.76373 9.90455 7.61999 9.65814C7.47625 9.41173 7.60503 9.27943 7.728 9.15706C7.83934 9.04708 7.97477 8.87013 8.09856 8.72625C8.22319 8.58403 8.2639 8.4815 8.34699 8.31695C8.42924 8.15323 8.38853 8.00935 8.32622 7.88615C8.2639 7.76377 7.77037 6.55405 7.56515 6.06206C7.36492 5.58248 7.16136 5.6478 7.00931 5.64036C6.86557 5.63291 6.70106 5.63209 6.53572 5.63209C6.37121 5.63209 6.10368 5.69328 5.87768 5.93968C5.65169 6.18609 5.01359 6.78062 5.01359 7.98951C5.01359 9.19923 5.89846 10.3676 6.02142 10.5313C6.14439 10.695 7.76207 13.1773 10.2388 14.2415C10.8279 14.4945 11.2882 14.6459 11.6463 14.7591C12.2379 14.946 12.7763 14.9195 13.2017 14.8567C13.6761 14.7864 14.6623 14.2622 14.8684 13.6883C15.0744 13.1145 15.0744 12.6217 15.0121 12.52C14.9506 12.4166 14.7861 12.3554 14.5394 12.2322Z" fill="white"/>
</svg>
